<?xml version="1.0" encoding="UTF-8"?>
<svg id="Ebene_2" data-name="Ebene 2" xmlns="http://www.w3.org/2000/svg" xmlns:xlink="http://www.w3.org/1999/xlink" viewBox="0 0 144.99 145.63">
  <defs>
    <style>
      .cls-1 {
        fill: #fff;
      }

      .cls-2 {
        clip-path: url(#clippath-1);
      }

      .cls-3 {
        clip-path: url(#clippath);
      }

      .cls-4 {
        fill: none;
      }
    </style>
    <clipPath id="clippath">
      <rect class="cls-4" width="144.99" height="145.63"/>
    </clipPath>
    <clipPath id="clippath-1">
      <rect class="cls-4" width="144.99" height="145.63"/>
    </clipPath>
  </defs>
  <g id="Ebene_1-2" data-name="Ebene 1">
    <g id="Marker_11" data-name="Marker 11">
      <g class="cls-3">
        <g class="cls-2">
          <path d="m88.17.27c-4.15.57-8.39,1.51-12.58,1.56-4.4.05-8.89-.83-13.26-.61-6.59.34-13.12,2.47-19.72,2.31-5.25-.13-10.37-2.01-15.64-2.01-6.04,0-11.53,2.58-15.98,6.53C3.3,14.88,2.63,24.27,1.37,33.79c-.72,5.5-1.7,10.78-.71,16.32,1.05,5.91,4.64,11.25,4.8,17.34.13,4.85-2.38,9.42-3.74,13.94-1.84,6.09-2.35,12.82-.8,19.04,1.5,6.05,4.56,11.33,7.01,17,2.17,5.01,4.84,10.05,8.32,14.28,12.14,14.75,32.2,14.89,49.82,13.2,6.49-.62,12.59-4.06,19.04-4.35,10.82-.47,20.2,5.67,31.28,3.92,15.63-2.47,27.47-16.68,28.53-32.15.51-7.4-1.98-14.66-1.66-22.1.36-8.07,2.75-15.36.62-23.46-2.15-8.15-8.38-14.6-10.14-22.78-1.8-8.27,3.37-16.31,1.46-24.82C131.34,1.92,114.18.13,99.73.13c-3.79,0-7.8-.37-11.56.14"/>
          <path class="cls-1" d="m92.93,9.45c-5.93.78-12.03,2.31-18.02,2.24-4.39-.05-8.87-1.7-13.26-1.3-6.38.57-12.33,3.76-18.7,3.93-8.69.23-16.13-6.47-24.14.2-6.88,5.73-7.09,13.45-8.3,21.65-.71,4.77-1.65,9.71.45,14.28,2.39,5.21,9.56,9.3,9.88,15.3.26,5.05-4.48,9.09-7.12,12.92-3.69,5.34-5.32,11.24-4.28,17.68.87,5.41,3.46,10.45,5.89,15.3,4.55,9.12,9.41,18.57,19.46,22.63,8.71,3.51,22.11,2.71,31.28,1.41,6.94-.98,12.88-6.72,19.72-7.03,9.99-.45,17.4,8.62,27.88,6.98,10.87-1.7,21.59-11.96,22.09-23.31.31-7.17-2.45-13.91-2.37-21.08.09-7.63,3.7-14.33,1.65-22.1-2.25-8.53-9.98-14.5-11.84-23.12-1.67-7.69,3.75-14.51,2.99-22.1-1.35-13.49-15.1-14.23-25.44-14.28-2.64-.01-5.17-.54-7.82-.2"/>
          <path d="m59.95,21.03c-10.6,1.91-11.19,11.77-15.41,19.56-3.12,5.78-7.54,10.67-5.42,17.68,1.91,6.36,8.94,10.36,13.34,14.96,5.35,5.6,9.67,11.78,18.37,10.04,10.17-2.02,10.91-12.66,14.7-20.24,2.73-5.45,6.56-10.2,4.67-16.66-1.8-6.1-8.63-10.86-12.91-15.3-4.94-5.12-9.21-11.51-17.34-10.04m-33.66-2.67c-9.18.53-8.15,14.71,1.02,14.01,8.99-.7,7.97-14.53-1.02-14.01m85.34-1.02c-9.18.53-8.15,14.71,1.02,14.01,8.99-.7,7.97-14.53-1.02-14.01m-20.4-.34c-9.18.53-8.15,14.71,1.02,14.01,8.99-.7,7.97-14.53-1.02-14.01"/>
          <path class="cls-1" d="m61.65,29.58c-7.86.48-6.81,12.65,1.02,11.97,7.66-.67,6.61-12.44-1.02-11.97"/>
          <path d="m23.57,38.76c-9.18.53-8.15,14.71,1.02,14.01,8.99-.7,7.97-14.53-1.02-14.01m82.28-1.02c-9.18.53-8.15,14.71,1.02,14.01,8.99-.7,7.97-14.53-1.02-14.01"/>
          <path class="cls-1" d="m52.81,48.28c-7.86.48-6.81,12.65,1.02,11.97,7.66-.67,6.61-12.44-1.02-11.97m22.78-4.08c-7.86.48-6.81,12.65,1.02,11.97,7.66-.67,6.61-12.44-1.02-11.97"/>
          <path d="m108.57,60.47c-10,1.8-11.54,11.61-16.22,18.88-3.14,4.88-7.17,9.05-6.5,15.3.63,5.83,5.73,10.36,8.49,15.3,1.33,2.39,1.98,5.17,3.39,7.48,3.42,5.6,9.38,8.97,15.94,7.66,8.73-1.74,14.25-12.2,10.43-20.24-1.82-3.83-6.66-7.39-6.66-11.9,0-5.13,5.48-8.71,7.15-13.26,3.58-9.72-5.73-21.07-16.02-19.22"/>
          <path class="cls-1" d="m110.27,69.02c-7.86.48-6.81,12.65,1.02,11.97,7.66-.67,6.61-12.44-1.02-11.97m-42.84-6.12c-7.86.48-6.81,12.65,1.02,11.97,7.66-.67,6.61-12.44-1.02-11.97"/>
          <path d="m32.07,77.81c-2.38.43-4.61,1.38-6.45,2.95-1.4,1.18-2.76,2.54-3.82,4.03-6.1,8.6,1.41,16.52,5.08,24.14,1.72,3.57,2.09,7.39,4.67,10.54,6.78,8.28,13.98,4.55,22.96,4.77,4.19.1,8.02,1.75,12.24.78,13.78-3.18,14.66-21.6,2.72-27.65-5.79-2.94-11.87,1.48-17-2.56-3.26-2.56-3.35-5.64-5.22-9-2.94-5.28-9.04-9.11-15.18-8"/>
          <path class="cls-1" d="m110.27,104.72c-7.86.48-6.81,12.65,1.02,11.97,7.66-.67,6.61-12.44-1.02-11.97m-47.26,0c-7.86.48-6.81,12.65,1.02,11.97,7.66-.67,6.61-12.44-1.02-11.97m-20.4,0c-7.86.48-6.81,12.65,1.02,11.97,7.66-.67,6.61-12.44-1.02-11.97m57.46-17.68c-7.86.48-6.81,12.65,1.02,11.97,7.66-.67,6.61-12.44-1.02-11.97m-66.3-.68c-7.86.48-6.81,12.65,1.02,11.97,7.66-.67,6.61-12.44-1.02-11.97"/>
        </g>
      </g>
    </g>
  </g>
</svg>