<?xml version="1.0" encoding="UTF-8"?>
<svg id="Ebene_2" data-name="Ebene 2" xmlns="http://www.w3.org/2000/svg" xmlns:xlink="http://www.w3.org/1999/xlink" viewBox="0 0 141.48 141.53">
  <defs>
    <style>
      .cls-1 {
        fill: #fff;
      }

      .cls-2 {
        clip-path: url(#clippath-1);
      }

      .cls-3 {
        clip-path: url(#clippath);
      }

      .cls-4 {
        fill: none;
      }
    </style>
    <clipPath id="clippath">
      <rect class="cls-4" width="141.48" height="141.53"/>
    </clipPath>
    <clipPath id="clippath-1">
      <rect class="cls-4" width="141.48" height="141.53"/>
    </clipPath>
  </defs>
  <g id="Ebene_1-2" data-name="Ebene 1">
    <g id="Marker_10" data-name="Marker 10">
      <g class="cls-3">
        <g class="cls-2">
          <path d="m26.54.13C17.49,1.31,9.57,6.35,5.75,14.95c-1.86,4.21-2.4,8.76-3.15,13.26-.83,4.93-2.01,9.96-2.23,14.96-.23,5.36.8,10.63.67,15.98-.16,6.27-1.17,12.38-1.02,18.7.11,4.22,1.02,8.33,1.02,12.58,0,12.06-3.27,23.39,3.86,34.34,5.35,8.22,13.88,14.59,23.68,16.17,5.68.92,11.6.49,17.34.49s11.89.44,17.68-.49c6.1-.98,11.8-4.33,18.02-4.6,5.29-.23,10.3,2.2,15.3,3.59,5.16,1.43,10.34,1.85,15.64,1.01,15.63-2.47,27.47-16.68,28.53-32.15.49-7.19-2.04-14.23-2.01-21.42.03-5.61,1.97-11.07,2.35-16.66.32-4.7-.77-9.28-.98-13.94-.49-11.34,2.89-21.79-3.93-31.96-2.86-4.27-6.4-8.26-10.02-11.9-4.54-4.57-9.44-9.32-15.64-11.53-6.08-2.16-12.46-1.21-18.7-.47-9.86,1.18-20.34,3.28-30.26,3.16-6.52-.08-13.3-.36-19.72-1.57-5-.94-10.51-3.03-15.64-2.37"/>
          <path class="cls-1" d="m98.28,9.65c-5.54.73-11.13.91-16.66,1.66-4.2.56-8.34,1.96-12.58,2.25-7.54.52-15.91-.16-23.46-.68-8.61-.59-17.65-6.31-25.5-.13-6.88,5.41-7.22,12.64-8.71,20.56-.89,4.78-1.69,9.39-1.48,14.28.15,3.29,1.01,6.56,1.01,9.86,0,5.49-1.92,10.83-2.02,16.32-.1,5.05,1.79,9.94,2.01,14.96.32,7.37-2.51,14.39-1.63,21.76.85,7.16,6.09,13.67,11.84,17.67,8.22,5.71,18.13,4.09,27.54,4.09,5.58,0,10.88.61,16.32-1.14,5.85-1.87,11-7.04,17.34-7.2,4.69-.13,8.97,3.24,12.92,5.32,4.4,2.31,9.64,3.65,14.62,2.87,12.63-1.97,22.65-13.98,22.09-26.71-.26-5.81-3.2-11.16-3.2-17s2.92-11.45,3.49-17.34c.51-5.22-1.09-10.16-1.58-15.3-.71-7.45,2.88-15.35-.49-22.44-2.17-4.57-5.61-8.28-9.08-11.9-6.33-6.62-12.9-13.06-22.79-11.76"/>
          <path d="m116.98,31.82c-9.18.53-8.15,14.71,1.02,14.01,8.99-.7,7.97-14.53-1.02-14.01m-64.6-8.21c-2.38.43-4.61,1.38-6.45,2.95-3.13,2.67-5.62,5.95-6.07,10.15-1.03,9.54,8.39,17.66,17.62,15.82,2.18-.43,4.08-1.53,5.77-2.93,3.44-2.85,5.86-6.64,5.98-11.19.2-8.48-8.38-16.33-16.85-14.8m29.92-4.71c-9.18.53-8.15,14.71,1.02,14.01,8.99-.7,7.97-14.53-1.02-14.01m20.74-2.04c-9.18.53-8.15,14.71,1.02,14.01,8.99-.7,7.97-14.53-1.02-14.01m-75.82,0c-9.18.53-8.15,14.71,1.02,14.01,8.99-.7,7.97-14.53-1.02-14.01"/>
          <path class="cls-1" d="m54.08,32.16c-7.86.48-6.81,12.65,1.02,11.97,7.66-.67,6.61-12.44-1.02-11.97"/>
          <path d="m89.44,40.95c-8.5,1.53-10.83,8.48-13.54,15.48-2.08,5.38-6.85,10.14-7.48,15.98-.77,7.16,4.42,11.39,8.68,16.32,4.06,4.69,7.57,9.91,11.17,14.96,5.75,8.05,8.95,20.38,21.57,17.86,2.33-.46,4.33-1.68,6.11-3.21,5.45-4.7,7.61-12.46,3.34-18.73-2.18-3.18-7.18-7.44-7.1-11.56.13-6.96,8.95-11.06,9.68-18.36.31-3.07-.68-6.36-2.49-8.84-2.44-3.35-6.06-5.31-9.2-7.9-6.06-5.01-11.82-13.61-20.74-12m-65.62-3.35c-9.18.53-8.15,14.71,1.02,14.01,8.99-.7,7.97-14.53-1.02-14.01"/>
          <path class="cls-1" d="m91.14,49.5c-7.86.48-6.81,12.65,1.02,11.97,7.66-.67,6.61-12.44-1.02-11.97"/>
          <path d="m31.98,59.31c-8.94,1.61-15.29,11.69-11.38,20.24,1.81,3.97,6.54,6.69,6.1,11.56-.33,3.66-3.35,5.96-5.22,8.84-1.66,2.54-2.34,5.84-2.02,8.84.76,7.09,7.78,13.28,14.9,13.11,4.34-.11,8.14-2.41,12.58-2.22,4.88.22,8.92,2.87,13.94,1.87,7.75-1.54,13.26-10.27,11.3-17.86-1.33-5.16-6.23-9.13-9.38-13.26-4.69-6.15-9.42-12.83-13.58-19.38-4.02-6.33-8.49-13.32-17.24-11.74"/>
          <path class="cls-1" d="m106.44,101.18c-7.86.48-6.81,12.65,1.02,11.97,7.66-.67,6.61-12.44-1.02-11.97m-48.96,0c-7.86.48-6.81,12.65,1.02,11.97,7.66-.67,6.61-12.44-1.02-11.97m-23.8,0c-7.86.48-6.81,12.65,1.02,11.97,7.66-.67,6.61-12.44-1.02-11.97m11.56-16.66c-7.86.48-6.81,12.65,1.02,11.97,7.66-.67,6.61-12.44-1.02-11.97m50.32-.68c-7.86.48-6.81,12.65,1.02,11.97,7.66-.67,6.61-12.44-1.02-11.97m-12.92-15.98c-7.86.48-6.81,12.65,1.02,11.97,7.66-.67,6.61-12.44-1.02-11.97m-48.96,0c-7.86.48-6.81,12.65,1.02,11.97,7.66-.67,6.61-12.44-1.02-11.97m73.1-5.1c-7.86.48-6.81,12.65,1.02,11.97,7.66-.67,6.61-12.44-1.02-11.97"/>
        </g>
      </g>
    </g>
  </g>
</svg>