<?xml version="1.0" encoding="UTF-8"?>
<svg id="Ebene_2" data-name="Ebene 2" xmlns="http://www.w3.org/2000/svg" xmlns:xlink="http://www.w3.org/1999/xlink" viewBox="0 0 141.29 142.35">
  <defs>
    <style>
      .cls-1 {
        fill: #fff;
      }

      .cls-2 {
        clip-path: url(#clippath-1);
      }

      .cls-3 {
        clip-path: url(#clippath);
      }

      .cls-4 {
        fill: none;
      }
    </style>
    <clipPath id="clippath">
      <rect class="cls-4" width="141.29" height="142.35"/>
    </clipPath>
    <clipPath id="clippath-1">
      <rect class="cls-4" width="141.29" height="142.35"/>
    </clipPath>
  </defs>
  <g id="Ebene_1-2" data-name="Ebene 1">
    <g id="Marker_0" data-name="Marker 0">
      <g class="cls-3">
        <g class="cls-2">
          <path d="m47.11.32c-13.82,1.84-30.11-3.12-40.74,8.36C-3.26,19.08.66,30.46,1.52,43.02c.42,6.21,1.49,12.83,1.37,19.04-.1,5.41-1.78,10.62-2.3,15.98-.65,6.65-.06,13.37-.06,20.06,0,12.18-.23,23.13,8.85,32.64,6.36,6.65,14.46,11.14,23.79,11.55,4.69.2,9.28-.79,13.94-1,6.95-.3,13.84,1.45,20.74.98,6.32-.43,12.37-2.75,18.7-3.02,8.92-.37,17.08,3.66,26.18,2.22,16.51-2.6,28.96-18.39,28.55-34.87-.17-7.2-3.49-13.91-3.72-21.08-.17-5.53,1.79-11.16,2.31-16.66.39-4.11-.43-8.16-.61-12.24-.45-10.29,3.44-21.02-1.82-30.6-1.81-3.3-4.39-5.87-7.03-8.5C122.94,10.08,111.16-.33,99.81.25c-7.71.4-14.47,5.86-22.1,5.67-5.18-.13-10.1-2.87-14.96-4.37C57.85.03,52.21-.35,47.11.32"/>
          <path class="cls-1" d="m51.19,9.16c-4.47.57-9.09,1.78-13.6,1.9-9.43.23-17.62-2.68-24.76,5.44-6.78,7.71-1.76,18.14-1.76,27.2,0,6.64,2.61,13.5,1.98,20.06-.56,5.91-3.06,11.42-3.62,17.34-.49,5.11.94,10.21.59,15.3-.76,11.16-1.1,20.74,7.51,29.23,10.63,10.5,21.94,5.98,35.02,6.13,6.12.07,11.83,2.08,18.02.99,5.17-.91,10.02-3.8,15.3-4.04,8.34-.36,15.62,5.25,24.14,3.92,8.99-1.4,17.33-8.37,20.59-16.85,4.16-10.81-2.85-18.52-3.56-28.9-.43-6.21,3.06-11.91,3.65-18.02.64-6.63-1.72-13.08-1.27-19.72.43-6.26,2.77-12.07-.48-18.02-1.36-2.49-3.27-4.82-5.33-6.77-6.43-6.06-17.38-17.13-27.2-13.6-6.25,2.25-10.82,11.65-18.02,10.79-3.84-.46-7.27-4.14-10.2-6.4-4.68-3.61-10.88-6.75-17-5.98"/>
          <path d="m50.51,19.72c-2.38.43-4.61,1.38-6.45,2.95-3.13,2.67-5.62,5.95-6.07,10.15-1.03,9.54,8.39,17.66,17.62,15.82,2.18-.43,4.08-1.53,5.77-2.93,3.44-2.85,5.86-6.64,5.98-11.19.2-8.48-8.38-16.33-16.85-14.8m-27.54-1.99c-9.18.53-8.15,14.71,1.02,14.01,8.99-.7,7.97-14.53-1.02-14.01m76.84-.68c-9.18.53-8.15,14.71,1.02,14.01,8.99-.7,7.97-14.53-1.02-14.01"/>
          <path class="cls-1" d="m52.21,28.27c-7.86.48-6.81,12.65,1.02,11.97,7.66-.67,6.61-12.44-1.02-11.97"/>
          <path d="m25.35,41.87c-9.18.53-8.15,14.71,1.02,14.01,8.99-.7,7.97-14.53-1.02-14.01m62.9-3.45c-8.78,1.58-14.84,11.08-11.66,19.56,1.72,4.58,6.07,7.08,9.62,10.06,6.74,5.67,12.43,14.9,22.44,12.9,8.12-1.62,13.74-11.07,10.98-18.88-1.64-4.66-5.66-7.17-9.28-10.17-6.39-5.31-12.59-15.18-22.1-13.47m27.88-8.45c-9.18.53-8.15,14.71,1.02,14.01,8.99-.7,7.97-14.53-1.02-14.01"/>
          <path class="cls-1" d="m89.95,46.97c-7.86.48-6.81,12.65,1.02,11.97,7.66-.67,6.61-12.44-1.02-11.97"/>
          <path d="m51.87,60.52c-4.18.75-7.67,3.5-11.56,5.07-8.36,3.39-18.24,3.35-20.24,14.49-1.04,5.75,3.36,10.32,2.84,15.98-.31,3.4-2.08,6.23-2.77,9.52-1.15,5.39,1.52,10.4,5.55,13.84,4.16,3.55,10.44,4.47,15.3,1.74,3.39-1.91,5.59-5.04,9.86-4.78,3.7.22,5.54,2.75,8.5,4.52,2.95,1.78,6.52,2.19,9.86,1.52,5.22-1.04,10.36-6.18,11.4-11.4.63-3.14.09-6.33.54-9.52.82-5.64,4.11-10.86,2.84-16.66-1.23-5.68-6.09-8.52-10.36-11.78-6.44-4.92-12.58-14.19-21.76-12.54"/>
          <path class="cls-1" d="m50.17,89.13c-7.86.48-6.81,12.65,1.02,11.97,7.66-.67,6.61-12.44-1.02-11.97m19.04-7.14c-7.86.48-6.81,12.65,1.02,11.97,7.66-.67,6.61-12.44-1.02-11.97m-35.02-5.78c-7.86.48-6.81,12.65,1.02,11.97,7.66-.67,6.61-12.44-1.02-11.97m19.38-7.14c-7.86.48-6.81,12.65,1.02,11.97,7.66-.67,6.61-12.44-1.02-11.97m51.68-8.5c-7.86.48-6.81,12.65,1.02,11.97,7.66-.67,6.61-12.44-1.02-11.97"/>
          <path d="m104.91,93.16c-2.38.43-4.61,1.38-6.45,2.95-3.13,2.67-5.62,5.95-6.07,10.15-1.03,9.54,8.39,17.66,17.62,15.82,2.18-.43,4.08-1.53,5.77-2.93,3.44-2.85,5.86-6.63,5.98-11.19.2-8.48-8.38-16.33-16.85-14.8"/>
          <path class="cls-1" d="m65.81,102.05c-7.86.48-6.81,12.65,1.02,11.97,7.66-.67,6.61-12.44-1.02-11.97m-31.62,0c-7.86.48-6.81,12.65,1.02,11.97,7.66-.67,6.61-12.44-1.02-11.97m72.42-.34c-7.86.48-6.81,12.65,1.02,11.97,7.66-.67,6.61-12.44-1.02-11.97"/>
        </g>
      </g>
    </g>
  </g>
</svg>