<?xml version="1.0" encoding="UTF-8"?>
<svg id="Ebene_2" data-name="Ebene 2" xmlns="http://www.w3.org/2000/svg" xmlns:xlink="http://www.w3.org/1999/xlink" viewBox="0 0 144 144.88">
  <defs>
    <style>
      .cls-1 {
        fill: #fff;
      }

      .cls-2 {
        clip-path: url(#clippath-1);
      }

      .cls-3 {
        clip-path: url(#clippath);
      }

      .cls-4 {
        fill: none;
      }
    </style>
    <clipPath id="clippath">
      <rect class="cls-4" width="144" height="144.88"/>
    </clipPath>
    <clipPath id="clippath-1">
      <rect class="cls-4" width="144" height="144.88"/>
    </clipPath>
  </defs>
  <g id="Ebene_1-2" data-name="Ebene 1">
    <g id="Marker_4" data-name="Marker 4">
      <g class="cls-3">
        <g class="cls-2">
          <path d="m22.21.24C10.28,1.87,1.31,11.25.17,23.22c-.5,5.24.96,10.7.96,15.98,0,6.91-1.27,13.91.3,20.74,1.59,6.88,6.14,13.15,5.81,20.4-.26,5.6-3.82,10.76-5.54,15.98-3.1,9.4-1.99,20.26,3.51,28.56,8.28,12.5,20.29,15.32,34,18.02,7.31,1.44,14.69,2.86,22.1,1.29,7.76-1.65,14.45-7.7,22.44-8.05,4.75-.22,9.56,2.56,13.94,4.04,5.63,1.9,11.47,2.48,17.34,1.55,13.79-2.17,25.9-14.28,28.07-28.07,1.08-6.85-.34-13.54-.34-20.4,0-6.22,1.7-12.49,1.11-18.7-.51-5.36-2.41-10.62-2.65-15.98-.52-11.96,5.8-22.24-1.96-33.32-2.66-3.8-6.11-6.89-9.61-9.9-7.32-6.3-15.71-13.27-25.84-13.52-4.31-.1-8.69,1.25-12.92,1.91-6.67,1.03-14.36,1.54-21.08,1.08-6.35-.44-12.14-2.52-18.36-3.56-4.53-.76-9.04-.3-13.6-.5-5.14-.23-10.49-1.23-15.64-.53"/>
          <path class="cls-1" d="m23.57,9.77c-2.06.32-4.02.99-5.78,2.13-1.51.97-2.83,2.18-4.05,3.5-6.75,7.33-2.38,15.81-2.76,24.48-.34,7.64-2.4,14.33.69,21.76,2.41,5.8,9,11.36,8.75,18.02-.2,5.35-4.83,9.91-7.39,14.28-4.92,8.41-5.34,17.98.35,26.18,7.13,10.25,17.5,12.01,28.89,14.15,6.77,1.27,13.4,2.49,20.06-.01,6.91-2.61,12.75-10.9,20.4-11.06,4.92-.1,9.57,3.74,13.6,6.1,4.81,2.81,10.73,4.52,16.32,3.53,10.68-1.89,20.6-11.56,21.7-22.57.6-5.99-1.41-11.74-1.29-17.68.13-6.79,2.53-13.22,1.32-20.06-.95-5.38-4.13-10.17-4.67-15.64-.64-6.38,4.25-11.71,4.24-18.02,0-3.27-1.54-6.28-3.44-8.84-5.13-6.9-15.75-16.97-24.66-18.26-5.49-.79-10.35,1.71-15.64,2.53-4.8.74-9.46-.11-14.28.1-4.01.18-7.85,1.26-11.9.98-5.09-.36-9.71-3.38-14.62-4.6-4.24-1.06-8.31-.3-12.58-.48-4.35-.19-8.9-1.21-13.26-.52"/>
          <path d="m73.21,44.8c-8.1,1.46-14.39,10.06-12.09,18.2,1.62,5.74,6.9,10.33,9.62,15.64,2.34,4.57,4.94,9.4,6.55,14.28,1.13,3.41,1.1,7.16,3.21,10.2,3.56,5.13,9.67,7.74,14.47,11.56,5.45,4.34,9.75,9.17,17.34,7.66,8.29-1.65,13.85-11.34,10.86-19.22-1.66-4.37-5.64-6.74-5.02-11.9.69-5.7,6.63-8.61,6.23-14.96-.41-6.32-4.96-10.2-8.59-14.96-4.64-6.08-7.4-14.63-16.06-15.88-4.75-.68-9.43,1.57-14.28,1.23-4.21-.3-7.92-2.63-12.24-1.85m-40.46-6.8c-2.38.43-4.61,1.38-6.45,2.95-3.13,2.67-5.62,5.95-6.07,10.15-1.03,9.54,8.39,17.66,17.62,15.82,2.18-.43,4.08-1.53,5.77-2.93,3.44-2.85,5.86-6.64,5.98-11.19.2-8.48-8.38-16.33-16.85-14.8m86.7-6.41c-9.18.53-8.15,14.71,1.02,14.01,8.99-.7,7.97-14.53-1.02-14.01m-43.18-9.86c-9.18.53-8.15,14.71,1.02,14.01,8.99-.7,7.97-14.53-1.02-14.01m27.2-3.06c-9.18.53-8.15,14.71,1.02,14.01,8.99-.7,7.97-14.53-1.02-14.01m-57.12-1.02c-9.18.53-8.15,14.71,1.02,14.01,8.99-.7,7.97-14.53-1.02-14.01m-22.78-.68c-9.18.53-8.15,14.71,1.02,14.01,8.99-.7,7.97-14.53-1.02-14.01"/>
          <path class="cls-1" d="m109.25,70.69c-7.86.48-6.81,12.65,1.02,11.97,7.66-.67,6.61-12.44-1.02-11.97m-23.8,0c-7.86.48-6.81,12.65,1.02,11.97,7.66-.67,6.61-12.44-1.02-11.97m11.9-16.66c-7.86.48-6.81,12.65,1.02,11.97,7.66-.67,6.61-12.44-1.02-11.97m-22.44-.68c-7.86.48-6.81,12.65,1.02,11.97,7.66-.67,6.61-12.44-1.02-11.97m-40.46-6.8c-7.86.48-6.81,12.65,1.02,11.97,7.66-.67,6.61-12.44-1.02-11.97"/>
          <path d="m45.67,76.76c-6.88,1.24-10.07,7.15-14.2,12.08-4.25,5.08-11.16,9.59-11.92,16.66-.75,6.93,4.44,13.99,11.16,15.72,3.86,1,7.95.26,11.9,1.16,4.99,1.15,9.36,3.73,14.62,2.68,2.18-.43,4.08-1.53,5.77-2.93,1.31-1.09,2.49-2.33,3.49-3.71,5.63-7.77-.19-14.91-2.77-22.44-1.1-3.21-.94-6.73-2.22-9.86-2.46-6.02-9.27-10.54-15.83-9.36"/>
          <path class="cls-1" d="m53.83,104.69c-7.86.48-6.81,12.65,1.02,11.97,7.66-.67,6.61-12.44-1.02-11.97m55.08-2.72c-7.86.48-6.81,12.65,1.02,11.97,7.66-.67,6.61-12.44-1.02-11.97m-75.14-1.02c-7.86.48-6.81,12.65,1.02,11.97,7.66-.67,6.61-12.44-1.02-11.97m58.82-11.22c-7.86.48-6.81,12.65,1.02,11.97,7.66-.67,6.61-12.44-1.02-11.97m-45.22-4.42c-7.86.48-6.81,12.65,1.02,11.97,7.66-.67,6.61-12.44-1.02-11.97"/>
        </g>
      </g>
    </g>
  </g>
</svg>