<?xml version="1.0" encoding="UTF-8"?>
<svg id="Ebene_2" data-name="Ebene 2" xmlns="http://www.w3.org/2000/svg" xmlns:xlink="http://www.w3.org/1999/xlink" viewBox="0 0 146.37 147.97">
  <defs>
    <style>
      .cls-1 {
        fill: #fff;
      }

      .cls-2 {
        clip-path: url(#clippath-1);
      }

      .cls-3 {
        clip-path: url(#clippath);
      }

      .cls-4 {
        fill: none;
      }
    </style>
    <clipPath id="clippath">
      <rect class="cls-4" width="146.37" height="147.97"/>
    </clipPath>
    <clipPath id="clippath-1">
      <rect class="cls-4" width="146.37" height="147.97"/>
    </clipPath>
  </defs>
  <g id="Ebene_1-2" data-name="Ebene 1">
    <g id="Marker_2" data-name="Marker 2">
      <g class="cls-3">
        <g class="cls-2">
          <path d="m102.4.11c-9.95,1.19-18.72,7.76-28.9,7.32-6.84-.3-12.86-4.17-19.38-5.81-6.28-1.57-12.36-.59-18.7-.31-10.23.44-18.92-.78-27.2,6.57C-1.99,16.94.58,27.87,2,39.74c.71,5.88.25,11.79.84,17.68.65,6.53,2.5,12.87,3.29,19.38.46,3.79.84,7.43.24,11.22-.83,5.25-3.35,9.9-4.8,14.96-2.21,7.71-2.23,15.98.87,23.46,4.41,10.61,14.6,18.75,25.84,20.87,5.43,1.03,11.15.55,16.66.55s11.68.44,17.34-.9c7.03-1.67,13.43-7.09,20.74-7.25,6.08-.14,11.48,3.55,17,5.63,5.57,2.09,11.49,2.53,17.34,1.74,13.23-1.78,24.71-12.99,27.92-25.74,1.57-6.28.98-12.96.98-19.38,0-5.91.45-11.91-1.07-17.68-2.04-7.72-8.34-14.21-9.37-22.1-1.26-9.67,8.71-17.23,9.39-26.86,1.1-15.75-12.85-23.86-25.13-30-5.31-2.66-11.51-5.95-17.68-5.21"/>
          <path class="cls-1" d="m101.04,9.97c-5.03.79-9.51,3.75-14.28,5.39-5.44,1.88-11.97,2.31-17.68,1.91-6.09-.43-11-4.29-16.66-6.08-4.98-1.58-9.57-.58-14.62-.36-7.54.33-15.91-1.63-22.1,3.81-8.51,7.48-4.72,15.19-3.8,24.76.51,5.22-.72,10.45-.22,15.64.88,9.27,3.36,18.38,4.95,27.54,2.46,14.13-12.35,25.06-5.92,39.44,6.67,14.93,19.67,17,34.23,17,6.14,0,12.16.2,18.02-1.94,6.61-2.4,12.32-8.91,19.72-8.91,5.08,0,9.98,3.32,14.28,5.64,5.52,2.99,11.98,5.45,18.36,4.32,9.66-1.71,18.48-9.65,21.03-19.17,1.5-5.63,1.07-11.57,1.07-17.34s.33-11.6-1.72-17c-2.8-7.37-9.95-13.1-11.1-21.08-1.6-11.14,8.99-17.48,10.67-27.54,2-12.02-11.83-18.46-20.63-22.86-4.29-2.15-8.7-3.94-13.6-3.17"/>
          <path d="m75.54,28c-7.3,1.31-13.1,8.37-12.55,15.82.27,3.68,2.12,7.19,2.65,10.88.52,3.63-.48,7.33.27,10.88,1.63,7.71,9.36,13.13,17.11,11.8,4.09-.7,7.29-3.74,10.88-5.59,3.68-1.9,8.08-2.66,11.56-4.77,6.84-4.14,10.56-12.96,5.93-20.14-4.45-6.91-11.18-6.25-17.49-10.01-6.08-3.63-10.4-10.31-18.36-8.87m45.56-1.65c-9.18.53-8.15,14.71,1.02,14.01,8.99-.7,7.97-14.53-1.02-14.01M23.52,18.19c-9.18.53-8.15,14.71,1.02,14.01,8.99-.7,7.97-14.53-1.02-14.01m23.8-.68c-9.18.53-8.15,14.71,1.02,14.01,8.99-.7,7.97-14.53-1.02-14.01m55.76-.68c-9.18.53-8.15,14.71,1.02,14.01,8.99-.7,7.97-14.53-1.02-14.01"/>
          <path class="cls-1" d="m77.24,36.55c-7.86.48-6.81,12.65,1.02,11.97,7.66-.67,6.61-12.44-1.02-11.97"/>
          <path d="m34.74,38.54c-7.37,1.32-13.33,8.6-12.52,16.16.41,3.85,2.54,7.4,3.25,11.22.67,3.6-.08,7.36.92,10.88,2.06,7.33,9.74,12.21,17.19,10.72,2.03-.4,3.83-1.38,5.44-2.66,1.33-1.06,2.53-2.28,3.57-3.64,5.31-6.97.83-13.72-.58-21.08-.67-3.5,0-7.12-.87-10.54-1.77-6.87-9.28-12.34-16.4-11.06"/>
          <path class="cls-1" d="m40.18,67.15c-7.86.48-6.81,12.65,1.02,11.97,7.66-.67,6.61-12.44-1.02-11.97m39.78-10.2c-7.86.48-6.81,12.65,1.02,11.97,7.66-.67,6.61-12.44-1.02-11.97m18.36-8.84c-7.86.48-6.81,12.65,1.02,11.97,7.66-.67,6.61-12.44-1.02-11.97m-61.88-1.02c-7.86.48-6.81,12.65,1.02,11.97,7.66-.67,6.61-12.44-1.02-11.97"/>
          <path d="m109.88,77.98c-4.65.84-8.09,4.21-11.9,6.75-7.05,4.7-17.22,6.84-18.3,16.89-1.24,11.52,9.66,14.09,17.28,18.94,5.78,3.67,10.64,8.55,18.02,7.08,6.3-1.25,11.59-7.76,11.75-14.12.08-3.64-1.21-7.2-1.21-10.88,0-4.26,1.58-8.32.96-12.58-1.07-7.38-9.26-13.4-16.6-12.08"/>
          <path class="cls-1" d="m93.9,97.07c-7.86.48-6.81,12.65,1.02,11.97,7.66-.67,6.61-12.44-1.02-11.97m17.68-10.54c-7.86.48-6.81,12.65,1.02,11.97,7.66-.67,6.61-12.44-1.02-11.97"/>
          <path d="m32.02,99.06c-13.29,2.39-16.34,18.59-6.12,26.47,6.24,4.81,13.06,1.3,20.06,1.6,3.96.18,7.56,1.65,11.56.85,12.91-2.57,14.91-18.68,5.44-26.13-6.3-4.96-13.83-1.7-21.08-1.93-3.34-.11-6.48-1.47-9.86-.86"/>
          <path class="cls-1" d="m54.12,107.61c-7.86.48-6.81,12.65,1.02,11.97,7.66-.67,6.61-12.44-1.02-11.97m-20.4,0c-7.86.48-6.81,12.65,1.02,11.97,7.66-.67,6.61-12.44-1.02-11.97m77.86-.34c-7.86.48-6.81,12.65,1.02,11.97,7.66-.67,6.61-12.44-1.02-11.97"/>
        </g>
      </g>
    </g>
  </g>
</svg>