<?xml version="1.0" encoding="UTF-8"?>
<svg id="Ebene_2" data-name="Ebene 2" xmlns="http://www.w3.org/2000/svg" xmlns:xlink="http://www.w3.org/1999/xlink" viewBox="0 0 149.01 150.46">
  <defs>
    <style>
      .cls-1 {
        fill: #fff;
      }

      .cls-2 {
        clip-path: url(#clippath-1);
      }

      .cls-3 {
        clip-path: url(#clippath);
      }

      .cls-4 {
        fill: none;
      }
    </style>
    <clipPath id="clippath">
      <rect class="cls-4" width="149.01" height="150.46"/>
    </clipPath>
    <clipPath id="clippath-1">
      <rect class="cls-4" width="149.01" height="150.46"/>
    </clipPath>
  </defs>
  <g id="Ebene_1-2" data-name="Ebene 1">
    <g id="Marker_3" data-name="Marker 3">
      <g class="cls-3">
        <g class="cls-2">
          <path d="m71.87.33c-5.03.72-9.9,2.34-14.96,2.85-5.91.6-11.96.17-17.68,2.13-6.24,2.14-11.61,6.36-17.34,9.54-6.66,3.69-13.14,6.77-17.67,13.21C-.85,35.29.61,42.68.81,50.84c.18,7.48-1.34,14.98-.62,22.44.53,5.55,3.1,10.57,4.21,15.98,1.37,6.71-1.13,12.58-2.5,19.04-1.2,5.66-1.18,11.76.42,17.34,3.91,13.67,17.54,24.47,31.81,24.81,7.16.18,13.96-2.66,21.08-2.71,8.35-.06,16.01,3.08,24.48,1.94,7.52-1.01,13.99-5.52,21.42-6.83,5.08-.9,10.18.11,15.3-.24,10.77-.74,20.12-6.22,26.47-14.93,5.18-7.1,7.07-16.21,5.68-24.82-1.04-6.47-3.53-12.39-3.24-19.04.27-5.97,2.77-11.67,3.04-17.68.29-6.61-1.69-13.12-1.69-19.72s1.29-12.86-.92-19.04c-3.6-10.09-14.1-15.84-22.88-20.84-4.25-2.41-8.71-4.83-13.6-5.59-5.97-.92-11.75.63-17.68.22-6.48-.44-13.21-1.78-19.72-.84"/>
          <path class="cls-1" d="m75.61,9.16c-6.24.82-12.12,3.1-18.36,3.84-4.8.58-9.59-.26-14.28,1.36-5.47,1.89-9.94,5.85-14.96,8.65-5.75,3.2-11.64,5.18-15.63,10.83-4.21,5.97-2.01,12.38-1.72,19.04.3,6.88-2.42,13.5-1.19,20.4,1.13,6.37,5.6,11.43,7.02,17.68,1.08,4.79-1.46,9.03-3.3,13.26-2.26,5.19-3.72,10.29-2.7,15.98.59,3.29,2.03,6.44,3.93,9.18,1.54,2.21,3.37,4.24,5.43,5.97,5.09,4.29,11.34,6.52,18.02,5.87,6.13-.59,11.8-3.01,18.02-3,7.14.01,13.84,3.56,21.08,2.62,7.75-1.01,13.59-6.71,21.08-8.25,4.97-1.01,9.66.64,14.62.86,9.38.41,17.59-4.23,22.97-11.89,4.11-5.85,5.31-13.23,3.2-20.06-1.63-5.27-5.11-10.64-4.72-16.32.38-5.6,3.74-10.5,4.7-15.98,1.3-7.38-1.68-14.13-2-21.42-.23-5.28,1.78-10.77.08-15.98-2.46-7.49-10.07-11.77-16.41-15.57-4.7-2.82-9.39-5.59-14.96-6.13-4.43-.43-8.85,1.27-13.26.9-5.38-.45-11.28-2.54-16.66-1.84"/>
          <path d="m122.87,27.93c-9.18.53-8.15,14.71,1.02,14.01,8.99-.7,7.97-14.53-1.02-14.01m-76.5-7.14c-9.18.53-8.15,14.71,1.02,14.01,8.99-.7,7.97-14.53-1.02-14.01m28.22-1.07c-2.38.43-4.61,1.38-6.45,2.95-3.13,2.67-5.62,5.95-6.07,10.15-1.03,9.54,8.39,17.66,17.62,15.82,2.18-.43,4.08-1.53,5.77-2.93,3.44-2.85,5.86-6.63,5.98-11.19.2-8.48-8.38-16.33-16.85-14.8m30.6-2.33c-9.18.53-8.15,14.71,1.02,14.01,8.99-.7,7.97-14.53-1.02-14.01"/>
          <path class="cls-1" d="m76.29,28.27c-7.86.48-6.81,12.65,1.02,11.97,7.66-.67,6.61-12.44-1.02-11.97"/>
          <path d="m32.09,54.74c-2.38.43-4.61,1.38-6.45,2.95-3.13,2.67-5.62,5.95-6.07,10.15-1.03,9.54,8.39,17.66,17.62,15.82,2.18-.43,4.08-1.53,5.77-2.93,3.44-2.85,5.86-6.63,5.98-11.19.2-8.48-8.38-16.33-16.85-14.8m79.9-4.42c-4.39.79-8.21,3.73-12.24,5.51-4.68,2.08-10.6,3.42-15.64,4.32-6.24,1.11-12.7-1.21-18.01,3.32-8.98,7.64-7.56,22.16,4.75,25.78,5.59,1.64,10.85-1.44,16.32-2.22,3.51-.51,7.05.35,10.54-.25,3.93-.67,7.28-3.46,10.88-5.05,7.13-3.15,14.31-2.79,18.64-10.49,5.54-9.84-4.31-22.89-15.24-20.92M23.59,33.71c-9.18.53-8.15,14.71,1.02,14.01,8.99-.7,7.97-14.53-1.02-14.01"/>
          <path class="cls-1" d="m74.25,69.07c-7.86.48-6.81,12.65,1.02,11.97,7.66-.67,6.61-12.44-1.02-11.97m20.4-2.72c-7.86.48-6.81,12.65,1.02,11.97,7.66-.67,6.61-12.44-1.02-11.97m-60.86-3.06c-7.86.48-6.81,12.65,1.02,11.97,7.66-.67,6.61-12.44-1.02-11.97m79.9-4.42c-7.86.48-6.81,12.65,1.02,11.97,7.66-.67,6.61-12.44-1.02-11.97"/>
          <path d="m52.49,95.88c-4.17.75-7.83,3.29-11.9,4.45-4.57,1.31-9.72.86-13.6,4-8.61,6.97-8.49,19.26,1.7,24.93,9.44,5.25,17.67-4.36,27.2-3.95,7.57.34,13.7,6.47,21.42,4.93,10.36-2.06,15.23-15.3,8.4-23.3-5.57-6.52-13.2-5.33-20.64-7.94-4.26-1.49-7.83-3.98-12.58-3.12m60.18-2.04c-2.38.43-4.61,1.38-6.45,2.95-3.13,2.67-5.62,5.95-6.07,10.15-1.03,9.54,8.39,17.66,17.62,15.82,2.18-.43,4.08-1.53,5.77-2.93,3.44-2.85,5.86-6.64,5.98-11.19.2-8.48-8.38-16.33-16.85-14.8"/>
          <path class="cls-1" d="m34.81,110.21c-7.86.48-6.81,12.65,1.02,11.97,7.66-.67,6.61-12.44-1.02-11.97m39.1-.34c-7.86.48-6.81,12.65,1.02,11.97,7.66-.67,6.61-12.44-1.02-11.97m-19.72-5.44c-7.86.48-6.81,12.65,1.02,11.97,7.66-.67,6.61-12.44-1.02-11.97m60.18-2.04c-7.86.48-6.81,12.65,1.02,11.97,7.66-.67,6.61-12.44-1.02-11.97"/>
        </g>
      </g>
    </g>
  </g>
</svg>