<?xml version="1.0" encoding="UTF-8"?>
<svg id="Ebene_2" data-name="Ebene 2" xmlns="http://www.w3.org/2000/svg" xmlns:xlink="http://www.w3.org/1999/xlink" viewBox="0 0 140.44 139.33">
  <defs>
    <style>
      .cls-1 {
        fill: #fff;
      }

      .cls-2 {
        clip-path: url(#clippath-1);
      }

      .cls-3 {
        clip-path: url(#clippath);
      }

      .cls-4 {
        fill: none;
      }
    </style>
    <clipPath id="clippath">
      <rect class="cls-4" width="140.44" height="139.33"/>
    </clipPath>
    <clipPath id="clippath-1">
      <rect class="cls-4" width="140.44" height="139.33"/>
    </clipPath>
  </defs>
  <g id="Ebene_1-2" data-name="Ebene 1">
    <g id="Marker_8" data-name="Marker 8">
      <g class="cls-3">
        <g class="cls-2">
          <path d="m52.36.27c-3.55.47-7.3,1.18-10.88,1.22-12.88.15-24.67-2.79-34.08,8.5-1.64,1.96-3.06,4.06-3.98,6.46-1,2.62-1.79,5.67-1.65,8.5.27,5.16,2.1,9.54,4.69,13.94,2.68,4.54,6.16,9.09,4.5,14.62-1.84,6.12-6.69,10.94-8.8,17C-.12,77.03,0,83.76,0,90.57,0,103.12-.09,115.2,9.19,124.91c5.37,5.62,11.93,9.82,19.71,11.07,6.28,1.01,12.72.25,19.04.89,6.34.63,12.61,2.73,19.04,2.29,5.95-.41,11.72-2.55,17.68-2.68,9.18-.21,17.51,3.87,26.86,2.61,16.69-2.25,29.61-18.69,28.89-35.26-.38-8.64-4.31-16.4-3.33-25.16.48-4.33,1.77-8.54,1.97-12.92.26-5.9-.7-11.77-.3-17.68.51-7.45,2.31-14.67-1.14-21.76-4.16-8.57-12.76-12.94-20.65-17.44-6.31-3.59-12.32-7.3-19.72-8-6.89-.66-13.83,1.25-20.74.95-7.87-.35-16.29-2.58-24.14-1.55"/>
          <path class="cls-1" d="m53.38,9.8c-4.12.59-8.08,2.25-12.24,2.54-5.56.38-10.75-2.05-16.32-1.64-7.29.54-14.6,8.92-13.03,16.29,1.96,9.22,16.55,15.95,13,26.18-2.42,6.94-9.46,11.51-12.8,18.02-3.23,6.28-2.89,12.58-2.81,19.38.13,10.75-.6,20.13,7.49,28.56,4.01,4.18,9.14,7.31,14.95,8.06,5.77.75,11.57-.55,17.34.15,6.38.78,12.51,3.37,19.04,2.57,5.9-.72,11.36-3.94,17.34-3.98,8.23-.06,15.35,5.59,23.8,4.27,12.44-1.94,23.59-14.49,22-27.39-.89-7.23-5.87-13.99-4.9-21.42.68-5.21,3.25-10.02,3.61-15.3.39-5.7-1.47-11.35-.93-17,.57-6.05,2.77-12.6-.15-18.36-2.8-5.51-8.34-8.78-13.51-11.7-5.09-2.89-10.21-6.77-15.98-8.14-8.08-1.92-17.52.32-25.84.12-6.62-.17-13.43-2.16-20.06-1.21"/>
          <path d="m85,39.73c-3.94.71-7.56,2.52-11.56,3.09-3.81.55-7.5-.27-11.22,1.07-3.49,1.26-6.39,4.13-9.52,6.08-3.43,2.13-7.64,3.21-10.88,5.51-3.55,2.52-6.38,6.23-9.52,9.24-3.5,3.34-8.17,5.99-10.72,10.21-2.99,4.97-1.01,9.38-.84,14.62.29,9.34-3.45,17.38,5.1,24.32,1.42,1.15,3.01,2.01,4.76,2.53,3.17.93,6.92.64,9.86-.89,2.86-1.48,4.99-3.9,8.5-3.31,7.55,1.27,10.73,8.84,19.38,7.11,6.38-1.27,12.15-8.22,11.73-14.8-.34-5.28-3.74-8.15.28-12.92,1.78-2.11,4.27-3.3,6.34-5.07,3.43-2.96,5.98-6.82,10.55-8.18,2.52-.74,4.94.46,7.48.52,4.94.11,9.17-2.85,12.07-6.65,5.35-7.02,2.15-15.92-4.59-20.59-3.35-2.32-7.67-3.35-11.22-5.53-5.08-3.11-9.52-7.52-15.98-6.36m-44.88-8.11c-9.18.53-8.15,14.71,1.02,14.01,8.99-.7,7.97-14.53-1.02-14.01m75.48-2.72c-9.18.53-8.15,14.71,1.02,14.01,8.99-.7,7.97-14.53-1.02-14.01m-41.14-9.86c-9.18.53-8.15,14.71,1.02,14.01,8.99-.7,7.97-14.53-1.02-14.01m21.42-1.36c-9.18.53-8.15,14.71,1.02,14.01,8.99-.7,7.97-14.53-1.02-14.01m-70.72,0c-9.18.53-8.15,14.71,1.02,14.01,8.99-.7,7.97-14.53-1.02-14.01m29.24-.68c-9.18.53-8.15,14.71,1.02,14.01,8.99-.7,7.97-14.53-1.02-14.01"/>
          <path class="cls-1" d="m53.38,81.94c-7.86.48-6.81,12.65,1.02,11.97,7.66-.67,6.61-12.44-1.02-11.97m-19.38-6.12c-7.86.48-6.81,12.65,1.02,11.97,7.66-.67,6.61-12.44-1.02-11.97m43.18-6.46c-7.86.48-6.81,12.65,1.02,11.97,7.66-.67,6.61-12.44-1.02-11.97m-28.22-7.48c-7.86.48-6.81,12.65,1.02,11.97,7.66-.67,6.61-12.44-1.02-11.97m55.42-3.74c-7.86.48-6.81,12.65,1.02,11.97,7.66-.67,6.61-12.44-1.02-11.97m-37.74-6.46c-7.86.48-6.81,12.65,1.02,11.97,7.66-.67,6.61-12.44-1.02-11.97m20.06-3.4c-7.86.48-6.81,12.65,1.02,11.97,7.66-.67,6.61-12.44-1.02-11.97"/>
          <path d="m104.04,90.73c-2.38.43-4.61,1.38-6.45,2.95-3.13,2.67-5.62,5.95-6.07,10.15-1.03,9.54,8.39,17.66,17.62,15.82,2.18-.43,4.08-1.53,5.77-2.93,3.44-2.85,5.86-6.64,5.98-11.19.2-8.48-8.38-16.33-16.85-14.8"/>
          <path class="cls-1" d="m105.74,99.28c-7.86.48-6.81,12.65,1.02,11.97,7.66-.67,6.61-12.44-1.02-11.97m-40.8-.34c-7.86.48-6.81,12.65,1.02,11.97,7.66-.67,6.61-12.44-1.02-11.97m-30.94-2.72c-7.86.48-6.81,12.65,1.02,11.97,7.66-.67,6.61-12.44-1.02-11.97"/>
        </g>
      </g>
    </g>
  </g>
</svg>