<?xml version="1.0" encoding="UTF-8"?>
<svg id="Ebene_2" data-name="Ebene 2" xmlns="http://www.w3.org/2000/svg" xmlns:xlink="http://www.w3.org/1999/xlink" viewBox="0 0 144.61 147.68">
  <defs>
    <style>
      .cls-1 {
        fill: #fff;
      }

      .cls-2 {
        clip-path: url(#clippath-1);
      }

      .cls-3 {
        clip-path: url(#clippath);
      }

      .cls-4 {
        fill: none;
      }
    </style>
    <clipPath id="clippath">
      <rect class="cls-4" width="144.61" height="147.68"/>
    </clipPath>
    <clipPath id="clippath-1">
      <rect class="cls-4" width="144.61" height="147.68"/>
    </clipPath>
  </defs>
  <g id="Ebene_1-2" data-name="Ebene 1">
    <g id="Marker_1" data-name="Marker 1">
      <g class="cls-3">
        <g class="cls-2">
          <path d="m100.1.11c-9.7,1.16-18.3,6.89-28.22,6.65-6.54-.17-12.67-3.08-19.04-4.21-6.04-1.08-11.98.03-18.02.44-9.88.68-18.32-.04-26.17,7.23C-.9,19.05,1.02,30.21,2.12,41.78c.57,5.97-.8,12.01-.22,18.02.49,5.11,2.58,9.89,3.24,14.96.9,6.91-2.54,13.2-4.16,19.72-1.64,6.6-1.24,14.08,1.27,20.4,3.9,9.85,12.34,16.28,21.01,21.78,10.54,6.69,20.46,12.24,33.32,10.8,8.47-.94,15.66-8.25,24.14-8.08,5.77.11,11.08,3.89,16.32,5.89,5.59,2.14,11.45,2.61,17.34,1.81,13.06-1.76,24.22-12.62,27.73-25.06,1.65-5.84,1.47-12.03,1.88-18.02.45-6.51,1.28-12.94-.33-19.38-2-7.99-8.49-14.61-9.46-22.78-.45-3.79,1.84-7.72,3.64-10.88,2.71-4.75,5.7-9.7,6.09-15.3,1.14-16.29-13.61-24.07-26.15-30.34-5.3-2.65-11.53-5.95-17.68-5.21"/>
          <path class="cls-1" d="m98.74,9.97c-4.59.72-8.55,3.29-12.92,4.7-5.23,1.67-10.87,1.84-16.32,1.6-6.46-.29-12.08-3.42-18.36-4.36-5.74-.87-11.26.63-17,.63-6.43,0-12.97-.19-18.02,4.45-7.17,6.6-5.08,12.87-4.45,21.39.52,7.06-1.59,14.06-.55,21.08.89,6.03,5.05,11.01,5.92,17,.82,5.73-2.99,10.39-5.24,15.3-2.66,5.83-3.64,12.2-1.43,18.36,1.45,4.04,4.11,7.54,7.11,10.54,3.73,3.73,8.14,6.61,12.58,9.41,7.99,5.04,16.69,10.37,26.52,8.05,8.31-1.97,15.1-11,23.8-10.65,4.86.2,9.24,3.52,13.26,5.91,5.58,3.29,12.1,5.92,18.7,4.75,10.13-1.79,18.52-10.05,21.27-19.85,1.46-5.18,1.29-10.98,1.52-16.32.25-5.69,1.04-11.5-.93-17-2.7-7.56-10.05-13.31-11.22-21.42-1.58-10.97,9.35-17.28,11.01-27.2,2.03-12.13-11.62-17.79-20.29-22.37-4.7-2.47-9.48-4.86-14.96-4"/>
          <path d="m72.22,27.32c-7.37,1.32-13.33,8.6-12.52,16.16.43,3.98,2.73,7.62,3.53,11.56.72,3.6-.02,7.36.98,10.88,2.03,7.22,9.5,12.04,16.85,10.78,4.35-.74,8.31-4.03,12.24-5.93,3.27-1.58,7.07-1.79,10.2-3.55,7.38-4.15,11.11-13.74,5.8-21.02-5-6.87-11.32-5.06-17.7-8.85-6.49-3.84-10.78-11.58-19.38-10.03m47.6-.63c-9.18.53-8.15,14.71,1.02,14.01,8.99-.7,7.97-14.53-1.02-14.01m-95.54-6.46c-9.18.53-8.15,14.71,1.02,14.01,8.99-.7,7.97-14.53-1.02-14.01m23.46-1.36c-9.18.53-8.15,14.71,1.02,14.01,8.99-.7,7.97-14.53-1.02-14.01m53.04-2.04c-9.18.53-8.15,14.71,1.02,14.01,8.99-.7,7.97-14.53-1.02-14.01"/>
          <path class="cls-1" d="m73.92,35.87c-7.86.48-6.81,12.65,1.02,11.97,7.66-.67,6.61-12.44-1.02-11.97"/>
          <path d="m33.8,41.26c-2.38.43-4.61,1.38-6.45,2.95-3.13,2.67-5.62,5.95-6.07,10.15-1.03,9.54,8.39,17.66,17.62,15.82,2.18-.43,4.08-1.53,5.77-2.93,3.44-2.85,5.86-6.64,5.98-11.19.2-8.48-8.38-16.33-16.85-14.8"/>
          <path class="cls-1" d="m78,56.27c-7.86.48-6.81,12.65,1.02,11.97,7.66-.67,6.61-12.44-1.02-11.97m-42.5-6.46c-7.86.48-6.81,12.65,1.02,11.97,7.66-.67,6.61-12.44-1.02-11.97m61.2-1.7c-7.86.48-6.81,12.65,1.02,11.97,7.66-.67,6.61-12.44-1.02-11.97"/>
          <path d="m50.12,78.66c-4.44.8-7.78,3.91-11.56,6.15-7.44,4.41-17.45,5.82-18.94,16.13-1.65,11.45,9.76,14.76,17.24,19.84,5.68,3.85,10.25,8.68,17.68,7.2,6.3-1.25,11.59-7.76,11.75-14.12.08-3.52-.95-6.98-.86-10.54.08-3.55,1.74-7,1.52-10.54-.53-8.18-8.37-15.64-16.83-14.12m58.14-.68c-4.58.82-7.97,4.1-11.9,6.34-7.52,4.29-17.45,5.58-18.94,15.94-1.61,11.2,9.57,14.82,16.9,19.97,5.68,3.98,10.13,8.92,17.68,7.41,6.3-1.25,11.59-7.76,11.75-14.12.06-2.72-.96-5.44-.76-8.16.32-4.31,2.21-8.65,2.12-12.92-.2-8.33-8.37-15.99-16.85-14.46"/>
          <path class="cls-1" d="m51.14,107.61c-7.86.48-6.81,12.65,1.02,11.97,7.66-.67,6.61-12.44-1.02-11.97m57.46-.34c-7.86.48-6.81,12.65,1.02,11.97,7.66-.67,6.61-12.44-1.02-11.97m-74.8-10.54c-7.86.48-6.81,12.65,1.02,11.97,7.66-.67,6.61-12.44-1.02-11.97m57.8-.68c-7.86.48-6.81,12.65,1.02,11.97,7.66-.67,6.61-12.44-1.02-11.97m-39.78-8.84c-7.86.48-6.81,12.65,1.02,11.97,7.66-.67,6.61-12.44-1.02-11.97m58.14-.68c-7.86.48-6.81,12.65,1.02,11.97,7.66-.67,6.61-12.44-1.02-11.97"/>
        </g>
      </g>
    </g>
  </g>
</svg>