<?xml version="1.0" encoding="UTF-8"?>
<svg id="Ebene_2" data-name="Ebene 2" xmlns="http://www.w3.org/2000/svg" xmlns:xlink="http://www.w3.org/1999/xlink" viewBox="0 0 149.48 147.71">
  <defs>
    <style>
      .cls-1 {
        fill: #fff;
      }

      .cls-2 {
        clip-path: url(#clippath-1);
      }

      .cls-3 {
        clip-path: url(#clippath);
      }

      .cls-4 {
        fill: none;
      }
    </style>
    <clipPath id="clippath">
      <rect class="cls-4" width="149.48" height="147.71"/>
    </clipPath>
    <clipPath id="clippath-1">
      <rect class="cls-4" width="149.48" height="147.71"/>
    </clipPath>
  </defs>
  <g id="Ebene_1-2" data-name="Ebene 1">
    <g id="Marker_5" data-name="Marker 5">
      <g class="cls-3">
        <g class="cls-2">
          <path d="m59.31.14c-6.45.84-12.56,3.8-19.04,4.25-5.05.35-9.94-1.21-14.96-1.31-6.39-.12-12.47,2.76-16.99,7.15-1.62,1.58-3.11,3.46-4.28,5.41-6.6,11.07.43,20.36,1.18,31.62.41,6.11-2.75,11.95-3.02,18.02-.34,7.85,2.55,15.7,1.59,23.46-.68,5.55-2.86,10.77-3.54,16.32-1.18,9.6,1.83,19.43,8.43,26.52,8.57,9.22,18.68,11.41,30.57,13.4,5.49.92,11.06,2.13,16.66,1.89,6.06-.27,11.94-2.51,18.02-2.36,9.26.22,17.38,4.23,26.86,2.95,9.56-1.29,21.41-3.55,29.92-8.17,11.46-6.2,19.91-19.19,18.64-32.53-.43-4.5-1.56-8.81-3.45-12.92-2.81-6.15-6.66-11.62-5.95-18.7.55-5.52,2.75-10.75,3.28-16.32.51-5.29-.47-10.7.16-15.98,1.18-9.92,3.68-19.69-3.32-28.22-7.4-9.03-16.07-9.28-26.7-10.64-6.68-.85-12.95-3.65-19.72-3.94-5.36-.24-10.64,1.87-15.98,2-6.1.14-12.29-2.69-18.36-1.9"/>
          <path class="cls-1" d="m58.63,10.02c-6.11,1.1-10.5,6.73-16.66,7.35-7.93.8-14.37-7.48-22.44-3.12-1.52.81-2.86,1.89-4.08,3.09-1.42,1.41-2.72,2.96-3.61,4.76-4.8,9.66,6.47,18.28,4.12,28.22-1.46,6.19-5.05,11.79-4.89,18.36.18,6.98,4.06,13.35,3.3,20.4-.49,4.6-2.96,8.85-4.21,13.26-1.77,6.2-1.11,12.37,2,18.02,6.24,11.36,17.13,13.7,28.79,15.73,5.17.89,10.36,2.06,15.64,1.55,6.28-.61,11.97-3.95,18.36-3.67,4.6.21,8.87,2.61,13.26,3.77,4.91,1.29,9.67,1.14,14.62.15,7.27-1.47,15.84-2.78,22.44-6.27,10.45-5.54,17.58-17.47,14.03-29.28-1.61-5.4-5.5-9.53-8.8-13.94-1.99-2.65-4.23-6.04-3.72-9.52.92-6.31,5.59-11.42,6.92-17.68,1.42-6.7-.61-13.62.13-20.4.77-7.15,3.55-13.74-1.58-20.06-6.92-8.53-15.15-4.87-24.32-7.11-5.47-1.33-10.49-4.43-16.32-3.67-5.04.66-9.46,4.29-14.62,4.29-6.42,0-11.74-5.42-18.36-4.23"/>
          <path d="m85.83,39.6c-5.31.95-10.25,5.22-11.89,10.38-1.28,4.02-.95,7.47-3.36,11.22-3.2,4.95-8.59,8.6-8.88,14.96-.41,9.17,8.36,16.74,17.33,15.2,3.95-.67,7.56-2.72,11.56-3.43,4.6-.81,9.17.2,13.26-2.61,4.87-3.34,7.61-9.1,11.3-13.58,2.65-3.2,6.32-6.23,7.78-10.2,3.02-8.21-2.95-17.39-11.26-19.15-3.99-.85-8.16.43-12.24-.26-4.57-.77-8.85-3.39-13.6-2.53m-43.18-4.08c-10.61,1.91-11.19,11.77-15.41,19.56-2.51,4.66-5.91,8.71-5.66,14.28.39,8.52,9.2,14.9,17.33,13.5,10.35-1.77,11.54-13.01,15.57-20.64,2.11-4,5.12-7.45,5.02-12.24-.2-8.33-8.37-15.99-16.85-14.46m78.2-13.89c-9.18.53-8.15,14.71,1.02,14.01,8.99-.7,7.97-14.53-1.02-14.01m-96.56-1.7c-9.18.53-8.15,14.71,1.02,14.01,8.99-.7,7.97-14.53-1.02-14.01m68.68-3.06c-9.18.53-8.15,14.71,1.02,14.01,8.99-.7,7.97-14.53-1.02-14.01m-32.98,0c-9.18.53-8.15,14.71,1.02,14.01,8.99-.7,7.97-14.53-1.02-14.01"/>
          <path class="cls-1" d="m75.97,70.93c-7.86.48-6.81,12.65,1.02,11.97,7.66-.67,6.61-12.44-1.02-11.97m20.06-4.08c-7.86.48-6.81,12.65,1.02,11.97,7.66-.67,6.61-12.44-1.02-11.97m-60.18-4.42c-7.86.48-6.81,12.65,1.02,11.97,7.66-.67,6.61-12.44-1.02-11.97m72.76-11.56c-7.86.48-6.81,12.65,1.02,11.97,7.66-.67,6.61-12.44-1.02-11.97m-21.08-2.72c-7.86.48-6.81,12.65,1.02,11.97,7.66-.67,6.61-12.44-1.02-11.97m-43.18-4.08c-7.86.48-6.81,12.65,1.02,11.97,7.66-.67,6.61-12.44-1.02-11.97"/>
          <path d="m32.11,94.68c-12.02,2.16-16.37,16.61-7.81,24.99,5.59,5.47,12.12,3.37,19.03,4.91,4.79,1.08,8.89,3.43,13.94,2.42,11.21-2.23,15.2-16.42,7.47-24.31-5.84-5.97-12.1-3.74-19.37-5.41-4.39-1.01-8.64-3.43-13.26-2.6m80.92-.34c-3.87.7-7.39,2.84-11.22,3.79-7.69,1.92-13.85.53-19.11,7.95-7.3,10.3,3.47,23.99,15.03,22,3.64-.62,6.93-2.72,10.54-3.6,7.79-1.9,14.16-.62,19.36-8.2,6.72-9.79-3.12-24.01-14.6-21.94"/>
          <path class="cls-1" d="m94.67,107.65c-7.86.48-6.81,12.65,1.02,11.97,7.66-.67,6.61-12.44-1.02-11.97m-40.8-1.02c-7.86.48-6.81,12.65,1.02,11.97,7.66-.67,6.61-12.44-1.02-11.97m-20.06-3.4c-7.86.48-6.81,12.65,1.02,11.97,7.66-.67,6.61-12.44-1.02-11.97m80.92-.34c-7.86.48-6.81,12.65,1.02,11.97,7.66-.67,6.61-12.44-1.02-11.97"/>
        </g>
      </g>
    </g>
  </g>
</svg>