<?xml version="1.0" encoding="UTF-8"?>
<svg id="Ebene_2" data-name="Ebene 2" xmlns="http://www.w3.org/2000/svg" xmlns:xlink="http://www.w3.org/1999/xlink" viewBox="0 0 150.33 145.03">
  <defs>
    <style>
      .cls-1 {
        fill: #fff;
      }

      .cls-2 {
        clip-path: url(#clippath-1);
      }

      .cls-3 {
        clip-path: url(#clippath);
      }

      .cls-4 {
        fill: none;
      }
    </style>
    <clipPath id="clippath">
      <rect class="cls-4" width="150.33" height="145.03"/>
    </clipPath>
    <clipPath id="clippath-1">
      <rect class="cls-4" width="150.33" height="145.03"/>
    </clipPath>
  </defs>
  <g id="Ebene_1-2" data-name="Ebene 1">
    <g id="Marker_9" data-name="Marker 9">
      <g class="cls-3">
        <g class="cls-2">
          <path d="m101.09.4c-9.87,1.35-19.25,3.15-29.24,3.59-8.18.35-16.42-1.87-24.48-1.32-7.95.54-14.68,4.78-21.76,8.03-6.26,2.86-12.59,4.7-17.67,9.65C-.47,28.54.87,37.62,1.13,48.2c.17,7.28-1.49,14.44-.99,21.76.35,5.01,2.43,9.7,3.22,14.62,1.12,6.95-1.55,12.99-2.77,19.72-1.41,7.81-.34,16.24,3.75,23.12,7.37,12.39,21.27,19.44,35.55,17.19,6.53-1.03,12.46-4.38,19.04-5.19,5-.62,9.99.69,14.96.91,5.67.24,11.31-.8,17-.66,4.86.11,9.35,2.27,13.94,3.58,5.62,1.61,11.2,2.28,17,1.36,18.78-2.96,31.85-22.62,27.74-40.99-1.8-8.01-8.58-15.39-7.99-23.8.47-6.77,5.15-12.78,6.63-19.38,1.55-6.94.14-13.76.14-20.74,0-6.23,1.56-12.86.47-19.04C146.22,5.96,133.18.26,119.79.26c-6.1,0-12.66-.68-18.7.14"/>
          <path class="cls-1" d="m105.17,9.59c-5.76.68-11.26,2.45-17,3.15-4.14.51-8.42-.07-12.58.11-3.3.15-6.57.85-9.86,1-5.73.25-11.38-2.02-17-1.63-6.81.48-11.97,4.43-18.02,7.13-4.8,2.14-10.24,3.26-14.28,6.81-7.88,6.93-5.84,13.82-5.45,23.06.24,5.81-2.38,11.54-1.97,17.34.51,7.24,4.62,13.07,5.85,20.06,1.01,5.74-2.69,11.1-4.43,16.32-2.27,6.82-1.53,13.93,2.28,20.06,1.55,2.5,3.54,4.77,5.76,6.7,6.71,5.84,15.35,7.73,23.8,4.83,4.93-1.69,9.38-4.9,14.62-5.65,5.84-.83,11.25,2.01,17,2.27,6.38.28,12.36-2.3,18.7-2.02,9.27.41,16.41,7.96,26.18,6.69,3.9-.5,7.71-2.06,10.88-4.37,2.52-1.85,4.95-4.26,6.83-6.75,5.59-7.38,6.1-17.04,1.84-25.16-3.23-6.18-8.5-11.62-7.96-19.04.58-7.89,7.2-14.4,8.92-22.1,1.41-6.29-.5-12.11-.78-18.36-.43-9.94,4.01-19.22-5.11-26.7-5.67-4.65-12.86-3.56-19.72-3.56-2.76,0-5.79-.52-8.5-.19"/>
          <path d="m23.91,30.05c-9.18.53-8.15,14.71,1.02,14.01,8.99-.7,7.97-14.53-1.02-14.01m50.32-6.51c-2.38.43-4.61,1.38-6.45,2.95-3.13,2.67-5.62,5.95-6.07,10.15-1.03,9.54,8.39,17.66,17.62,15.82,2.18-.43,4.08-1.53,5.77-2.93,3.44-2.85,5.86-6.64,5.98-11.19.2-8.48-8.38-16.33-16.85-14.8m-26.86-4.03c-9.18.53-8.15,14.71,1.02,14.01,8.99-.7,7.97-14.53-1.02-14.01m77.52-2.38c-9.18.53-8.15,14.71,1.02,14.01,8.99-.7,7.97-14.53-1.02-14.01m-21.76,0c-9.18.53-8.15,14.71,1.02,14.01,8.99-.7,7.97-14.53-1.02-14.01"/>
          <path class="cls-1" d="m75.93,32.09c-7.86.48-6.81,12.65,1.02,11.97,7.66-.67,6.61-12.44-1.02-11.97"/>
          <path d="m112.65,38.5c-10.05,1.81-11.45,11.54-16,18.88-2.55,4.1-6.2,7.83-6.43,12.92-.41,9.17,8.36,16.74,17.33,15.2,9.84-1.69,11.8-12.79,16.25-19.96,2.48-3.99,5.57-7.28,5.7-12.24.2-8.48-8.38-16.33-16.85-14.8"/>
          <path class="cls-1" d="m114.35,47.05c-7.86.48-6.81,12.65,1.02,11.97,7.66-.67,6.61-12.44-1.02-11.97"/>
          <path d="m32.07,51.76c-11.42,2.05-16.41,15.85-8.47,24.32,4.88,5.21,10.42,4.16,16.63,6.13,5.22,1.65,8.28,4.71,11.76,8.83,3.2,3.79,5.71,8.01,7.66,12.58,1.18,2.74,1.33,5.85,2.68,8.5,3.06,6.04,9.65,9.67,16.32,8.34,2.18-.43,4.08-1.53,5.77-2.93,1.31-1.09,2.49-2.33,3.49-3.71,6.35-8.76-1.44-16.4-4.56-24.48-1.13-2.9-1.35-6.14-2.98-8.84-2.76-4.6-7.61-8.15-11.09-12.24-2.9-3.4-5.2-7.43-9.33-9.52-3.92-1.99-8.74-1.45-12.92-2.84-5.01-1.67-9.4-5.14-14.96-4.14"/>
          <path class="cls-1" d="m67.09,81.39c-7.86.48-6.81,12.65,1.02,11.97,7.66-.67,6.61-12.44-1.02-11.97m-13.6-15.3c-7.86.48-6.81,12.65,1.02,11.97,7.66-.67,6.61-12.44-1.02-11.97m51-1.02c-7.86.48-6.81,12.65,1.02,11.97,7.66-.67,6.61-12.44-1.02-11.97m-70.72-4.76c-7.86.48-6.81,12.65,1.02,11.97,7.66-.67,6.61-12.44-1.02-11.97"/>
          <path d="m114.01,96.3c-2.38.43-4.61,1.38-6.45,2.95-3.13,2.67-5.62,5.95-6.07,10.15-1.03,9.54,8.39,17.66,17.62,15.82,2.18-.43,4.08-1.53,5.77-2.93,3.44-2.85,5.86-6.63,5.98-11.19.2-8.48-8.38-16.33-16.85-14.8m-81.94,0c-2.38.43-4.61,1.38-6.45,2.95-3.13,2.67-5.62,5.95-6.07,10.15-1.03,9.54,8.39,17.66,17.62,15.82,2.18-.43,4.08-1.53,5.77-2.93,3.44-2.85,5.86-6.63,5.98-11.19.2-8.48-8.38-16.33-16.85-14.8"/>
          <path class="cls-1" d="m115.71,104.85c-7.86.48-6.81,12.65,1.02,11.97,7.66-.67,6.61-12.44-1.02-11.97m-81.94,0c-7.86.48-6.81,12.65,1.02,11.97,7.66-.67,6.61-12.44-1.02-11.97m41.48-4.76c-7.86.48-6.81,12.65,1.02,11.97,7.66-.67,6.61-12.44-1.02-11.97"/>
        </g>
      </g>
    </g>
  </g>
</svg>