<?xml version="1.0" encoding="UTF-8"?>
<svg id="Ebene_2" data-name="Ebene 2" xmlns="http://www.w3.org/2000/svg" xmlns:xlink="http://www.w3.org/1999/xlink" viewBox="0 0 147.54 147.21">
  <defs>
    <style>
      .cls-1 {
        fill: #fff;
      }

      .cls-2 {
        clip-path: url(#clippath-1);
      }

      .cls-3 {
        clip-path: url(#clippath);
      }

      .cls-4 {
        fill: none;
      }
    </style>
    <clipPath id="clippath">
      <rect class="cls-4" y="0" width="147.54" height="147.21"/>
    </clipPath>
    <clipPath id="clippath-1">
      <rect class="cls-4" y="0" width="147.54" height="147.21"/>
    </clipPath>
  </defs>
  <g id="Ebene_1-2" data-name="Ebene 1">
    <g id="Marker_6" data-name="Marker 6">
      <g class="cls-3">
        <g class="cls-2">
          <path d="m23.25.12C11.33,1.64,2.02,10.26.57,22.42c-.6,4.99.78,9.98.57,14.96-.31,7.22-1.93,14.54-.58,21.76,1.17,6.26,4.48,12.03,4.38,18.5-.09,5.67-2.79,10.75-4.05,16.18-1.84,7.92-.84,16.65,3.09,23.8,4.72,8.61,13.18,14.43,21.31,19.52,8.36,5.24,16.67,10.18,26.86,10.06,9-.11,17.12-4.8,26.18-4.41,13.57.6,27.12,6.08,40.8,3.92,11.16-1.76,21.52-10.19,25.84-20.59,3.24-7.83,3.2-15.7,1.06-23.8-1.23-4.65-3.42-9.08-3.75-13.94-.71-10.28,3.01-20.17,4.29-30.26.94-7.38-.38-14.7.13-22.1.64-9.36,2.6-18.22-3.93-26.18-1.53-1.87-3.35-3.67-5.28-5.13-10.15-7.69-19.95-2.99-30.94-.92-6.62,1.24-13.4-.76-20.06-.01-7.21.8-13.62,4.67-21.08,3.96-7.36-.7-15.3-.76-22.44-2.71C36.68,3.31,29.98-.73,23.25.12"/>
          <path class="cls-1" d="m22.57,10c-2.01.36-3.81,1.26-5.44,2.48-1.33.99-2.57,2.2-3.63,3.48-5.58,6.7-2.02,13.47-2.55,21.08-.55,7.81-3.24,15.4-.59,23.12,2.11,6.16,8.2,12.12,6.95,19.04-1.45,8.04-8.28,13.77-8.28,22.44,0,13.96,12.88,22.5,23.4,29.13,6.41,4.04,12.94,7.58,20.74,7.24,7.67-.34,14.4-6.58,22.1-6,13.98,1.06,28.54,8.73,42.84,5.53,8.95-2.01,17.07-9.73,19.57-18.56,3.24-11.4-5.49-18.91-5.96-29.58-.45-10.18,4.13-20.89,5.68-30.94,1.14-7.37-.9-14.42-.58-21.76.34-7.74,3.47-14.81-2.45-21.42-1.18-1.32-2.54-2.51-4.02-3.48-8.52-5.59-15.21,2.71-23.12,4.79-6.36,1.66-11.93-3.98-18.36-3.29-6.82.73-12.03,8.06-19.04,7.32-4.53-.48-8.39-3.44-12.92-3.92-5.26-.56-10.49,1.41-15.64-.18-6.25-1.93-11.69-7.79-18.7-6.52"/>
          <path d="m32.09,38.22c-9.52,1.71-16.3,13.42-10.39,21.94,4.81,6.94,13.39,7.8,20.25,11.97,6.91,4.2,11.6,10.58,18.02,15.25,3.14,2.3,7.11,2.95,10.88,2.2,9.45-1.88,14.99-13.87,9.44-21.94-2.96-4.32-7.97-7.12-11.82-10.6-3.13-2.83-5.79-6.51-9.52-8.6-3.47-1.94-7.64-2.63-11.22-4.53-5.08-2.68-9.45-6.81-15.64-5.69m78.54-.34c-6.08,1.09-11.33,6.34-12.42,12.42-.53,2.92-.06,5.89-.65,8.84-.85,4.21-3.38,8.28-3.58,12.58-.41,9.17,8.36,16.74,17.33,15.2,5.26-.9,10.47-5.93,11.67-11.12.77-3.34.3-6.8.98-10.2.86-4.36,3.41-8.44,3.52-12.92.2-8.48-8.38-16.33-16.85-14.8m-33.32-1.31c-9.18.53-8.15,14.71,1.02,14.01,8.99-.7,7.97-14.53-1.02-14.01m-22.44-12.92c-9.18.53-8.15,14.71,1.02,14.01,8.99-.7,7.97-14.53-1.02-14.01m34.68-3.4c-9.18.53-8.15,14.71,1.02,14.01,8.99-.7,7.97-14.53-1.02-14.01m34-3.4c-9.18.53-8.15,14.71,1.02,14.01,8.99-.7,7.97-14.53-1.02-14.01m-99.62,0c-9.18.53-8.15,14.71,1.02,14.01,8.99-.7,7.97-14.53-1.02-14.01"/>
          <path class="cls-1" d="m67.45,69.21c-7.86.48-6.81,12.65,1.02,11.97,7.66-.67,6.61-12.44-1.02-11.97m40.8-2.72c-7.86.48-6.81,12.65,1.02,11.97,7.66-.67,6.61-12.44-1.02-11.97m-56.1-10.88c-7.86.48-6.81,12.65,1.02,11.97,7.66-.67,6.61-12.44-1.02-11.97m-18.36-8.84c-7.86.48-6.81,12.65,1.02,11.97,7.66-.67,6.61-12.44-1.02-11.97m78.54-.34c-7.86.48-6.81,12.65,1.02,11.97,7.66-.67,6.61-12.44-1.02-11.97"/>
          <path d="m32.09,87.18c-8.99,1.62-15.56,12.03-11.22,20.58,2.8,5.53,8.03,7.14,12.92,10.14,6.73,4.12,12.04,11.16,20.74,9.42,8.86-1.76,14.41-12.51,10.26-20.58-2.66-5.17-7.38-6.66-11.96-9.46-6.41-3.9-12.46-11.59-20.74-10.1"/>
          <path class="cls-1" d="m33.79,95.73c-7.86.48-6.81,12.65,1.02,11.97,7.66-.67,6.61-12.44-1.02-11.97"/>
          <path d="m90.91,95.68c-12.31,2.21-16.35,17-7.48,25.31,5.79,5.43,12.38,2.89,19.38,4.2,4.69.87,8.71,3.11,13.6,2.13,11.51-2.29,15.15-16.8,7.13-24.65-6.04-5.92-12.63-3.32-20.05-4.77-4.2-.82-8.2-3.01-12.58-2.22"/>
          <path class="cls-1" d="m113.01,106.95c-7.86.48-6.81,12.65,1.02,11.97,7.66-.67,6.61-12.44-1.02-11.97m-61.88,0c-7.86.48-6.81,12.65,1.02,11.97,7.66-.67,6.61-12.44-1.02-11.97m41.48-2.72c-7.86.48-6.81,12.65,1.02,11.97,7.66-.67,6.61-12.44-1.02-11.97"/>
        </g>
      </g>
    </g>
  </g>
</svg>