<?xml version="1.0" encoding="UTF-8"?>
<svg id="Ebene_2" data-name="Ebene 2" xmlns="http://www.w3.org/2000/svg" xmlns:xlink="http://www.w3.org/1999/xlink" viewBox="0 0 148.73 147.24">
  <defs>
    <style>
      .cls-1 {
        fill: #fff;
      }

      .cls-2 {
        clip-path: url(#clippath-1);
      }

      .cls-3 {
        clip-path: url(#clippath);
      }

      .cls-4 {
        fill: none;
      }
    </style>
    <clipPath id="clippath">
      <rect class="cls-4" width="148.73" height="147.24"/>
    </clipPath>
    <clipPath id="clippath-1">
      <rect class="cls-4" width="148.73" height="147.24"/>
    </clipPath>
  </defs>
  <g id="Ebene_1-2" data-name="Ebene 1">
    <g id="Marker_7" data-name="Marker 7">
      <g class="cls-3">
        <g class="cls-2">
          <path d="m61.65.15c-5.72.75-11.28,2.62-17,3.2-6.83.7-13.87.22-20.06,3.76-10.85,6.19-11.8,16.94-16.42,27.24C5.01,41.37.47,48.54.12,56.45c-.36,8.3,2.75,15.96,2.71,24.14-.03,5.54-2.14,10.83-2.66,16.32-.84,8.73,1.39,17.14,6.71,24.14,3.53,4.66,8.04,8.31,12.61,11.9,8.64,6.79,18.18,13.77,29.58,14.27,8.26.36,15.93-3.59,24.14-3.38,9.28.22,17.31,4.14,26.86,2.95,8.93-1.11,19.22-2.07,27.54-5.64,12.83-5.49,21.68-19.05,21.07-33.02-.44-9.89-7.9-18.1-7.46-27.88.19-4.18,2.66-8.14,4.26-11.9,1.77-4.14,2.87-8.43,3.18-12.92.88-12.91-7.38-22.39-13.77-32.64-3.97-6.39-6.98-13.01-13.06-17.79-12.16-9.57-25.03-1.02-38.42-1.6-7.23-.32-14.48-4.2-21.76-3.25"/>
          <path class="cls-1" d="m106.19,9.69c-7.56.66-14.77,3.52-22.44,3.52-6.24,0-11.91-3.06-18.02-3.33-6.49-.28-11.77,2.45-18.02,3.47-7.04,1.15-14.02-1.26-20.06,3.77-6.55,5.45-6.69,12.66-9.82,19.95-3.19,7.44-8.82,13.93-8.82,22.44,0,6.47,3.67,12.05,4.3,18.36,1.06,10.61-6.83,19.41-2.97,30.26,1.94,5.45,5.92,9.84,10.17,13.62,8.59,7.62,19.17,16.59,31.28,16.29,7.53-.18,13.82-5.27,21.42-5.08,4.06.1,7.8,2.18,11.56,3.49,4.03,1.41,8.33,1.95,12.58,1.54,7.91-.75,17.83-1.66,25.16-4.8,10.94-4.68,18.84-16.06,16.57-28.12-1.59-8.46-11.3-15.22-11.04-23.8.14-4.77,3.87-8.81,6.34-12.58,3.36-5.11,5.67-10.78,5.07-17-.86-8.91-7.31-14.98-11.94-22.1-3.17-4.87-5.31-10.42-9.43-14.62-3.14-3.21-7.21-5.69-11.89-5.28"/>
          <path d="m112.31,39.27c-2.38.43-4.61,1.38-6.45,2.95-3.13,2.67-5.62,5.95-6.07,10.15-1.03,9.54,8.39,17.66,17.62,15.82,2.18-.43,4.08-1.53,5.77-2.93,3.44-2.85,5.86-6.64,5.98-11.19.2-8.48-8.38-16.33-16.85-14.8m-60.86-.68c-4.68.84-8.73,3.87-13.26,5.27-4.17,1.29-8.68.97-12.24,3.86-8.39,6.79-8.47,18.01.68,24.29,3.24,2.23,7.45,2.81,11.22,1.81,3.58-.95,5.45-3.33,9.18-1.28,3.64,1.99,3.46,5.13,5.28,8.39,3.2,5.73,9.28,9.18,15.8,8.06,9.71-1.66,10.47-10.73,13.87-17.92,3.22-6.83,8.8-13.2,5.06-21.08-4.9-10.31-14.02-7.63-23.01-9.21-4.23-.74-8.18-2.98-12.58-2.19m35.36-17.29c-9.18.53-8.15,14.71,1.02,14.01,8.99-.7,7.97-14.53-1.02-14.01m-51.68-.34c-9.18.53-8.15,14.71,1.02,14.01,8.99-.7,7.97-14.53-1.02-14.01m72.42-4.08c-9.18.53-8.15,14.71,1.02,14.01,8.99-.7,7.97-14.53-1.02-14.01m-44.88,0c-9.18.53-8.15,14.71,1.02,14.01,8.99-.7,7.97-14.53-1.02-14.01"/>
          <path class="cls-1" d="m65.05,68.56c-7.86.48-6.81,12.65,1.02,11.97,7.66-.67,6.61-12.44-1.02-11.97m-31.28-14.96c-7.86.48-6.81,12.65,1.02,11.97,7.66-.67,6.61-12.44-1.02-11.97m39.44-3.74c-7.86.48-6.81,12.65,1.02,11.97,7.66-.67,6.61-12.44-1.02-11.97m40.8-2.04c-7.86.48-6.81,12.65,1.02,11.97,7.66-.67,6.61-12.44-1.02-11.97m-60.86-.68c-7.86.48-6.81,12.65,1.02,11.97,7.66-.67,6.61-12.44-1.02-11.97"/>
          <path d="m32.07,86.19c-8.94,1.61-15.29,11.69-11.38,20.24,2.19,4.8,6.68,6.8,10.7,9.67,6.84,4.87,12.77,13.11,22.1,11.25,8.6-1.71,14.1-11.9,10.58-19.9-2.21-5.02-7.01-7.27-11.26-10.21-6.36-4.39-12.06-12.61-20.74-11.05m67.32-6.8c-10.11,1.82-10.93,10.4-14.09,18.2-2.88,7.11-9.25,13.76-4.77,21.76.84,1.5,2,2.87,3.23,4.07,7.3,7.15,14.08,2.57,22.43,1.11,3.75-.65,7.52.16,11.22-.58,2.33-.46,4.33-1.68,6.11-3.21,1.38-1.19,2.63-2.58,3.62-4.11,6.67-10.33-4.17-18.56-10-25.84-4.67-5.83-9.05-12.97-17.75-11.4"/>
          <path class="cls-1" d="m93.27,106.98c-7.86.48-6.81,12.65,1.02,11.97,7.66-.67,6.61-12.44-1.02-11.97m-43.18,0c-7.86.48-6.81,12.65,1.02,11.97,7.66-.67,6.61-12.44-1.02-11.97m63.92-3.4c-7.86.48-6.81,12.65,1.02,11.97,7.66-.67,6.61-12.44-1.02-11.97m-80.24-8.84c-7.86.48-6.81,12.65,1.02,11.97,7.66-.67,6.61-12.44-1.02-11.97m67.32-6.8c-7.86.48-6.81,12.65,1.02,11.97,7.66-.67,6.61-12.44-1.02-11.97"/>
        </g>
      </g>
    </g>
  </g>
</svg>